<?xml version="1.0" standalone="no"?>
<!DOCTYPE svg PUBLIC "-//W3C//DTD SVG 20010904//EN"
 "http://www.w3.org/TR/2001/REC-SVG-20010904/DTD/svg10.dtd">
<svg version="1.0" xmlns="http://www.w3.org/2000/svg"
 width="512.000000pt" height="512.000000pt" viewBox="0 0 512.000000 512.000000"
 preserveAspectRatio="xMidYMid meet">

<g transform="translate(0.000000,512.000000) scale(0.100000,-0.100000)"
fill="#000000" stroke="none">
<path d="M2378 4760 c-439 -40 -853 -205 -1198 -480 -114 -91 -300 -283 -386
-400 -223 -301 -363 -640 -420 -1015 -23 -150 -22 -461 0 -610 38 -244 100
-445 206 -662 114 -233 252 -424 437 -604 187 -183 348 -297 578 -410 429
-209 892 -274 1363 -189 437 79 844 293 1164 613 510 510 737 1239 608 1952
-155 861 -818 1557 -1670 1754 -204 47 -487 68 -682 51z m439 -365 c310 -44
592 -158 839 -341 403 -297 669 -741 739 -1237 17 -119 19 -366 5 -487 -42
-342 -194 -686 -422 -957 -38 -46 -70 -83 -72 -83 -2 0 -24 35 -49 78 -143
247 -375 465 -630 594 -104 52 -288 113 -407 135 -129 23 -390 23 -520 -1
-200 -36 -427 -131 -598 -249 -159 -109 -333 -299 -436 -476 -27 -45 -49 -81
-51 -81 -7 0 -142 166 -188 230 -105 151 -215 392 -260 575 -48 194 -52 230
-51 475 0 248 10 325 65 515 28 95 102 276 146 355 297 537 818 889 1428 963
82 10 370 5 462 -8z"/>
<path d="M2375 3861 c-244 -62 -442 -226 -540 -447 -66 -148 -85 -364 -45
-515 78 -298 308 -523 599 -584 105 -22 270 -20 367 5 287 74 519 315 581 604
20 97 13 307 -15 391 -76 231 -232 409 -438 500 -146 65 -359 84 -509 46z"/>
</g>
</svg>
